# xmcd
#
# Track frame offsets:
#	150
#	22105
#	40547
#	54637
#	66225
#	83580
#	101140
#	115107
#	133965
#	154727
#
# Disc length: 2408 seconds
#
# Revision: 0
# Processed by: cddbd v1.5.2PL0 Copyright (c) Steve Scherf et al.
# Submitted via: dBpowerAMP V4.0
#
DISCID=8309660a
DTITLE=Sean Walsh and the National Reserve - Homesick
DYEAR=2009
DGENRE=Folk Americana
TTITLE0=I'll Take the Wheel
TTITLE1=Do You Miss Me
TTITLE2=Record Spin
TTITLE3=Goodnight
TTITLE4=My Dizzy Head
TTITLE5=Borderlines
TTITLE6=You Know
TTITLE7=The Best of Me
TTITLE8=I Can't Won't to See You Again
TTITLE9=Stuck
EXTD=
EXTT0=
EXTT1=
EXTT2=
EXTT3=
EXTT4=
EXTT5=
EXTT6=
EXTT7=
EXTT8=
EXTT9=
PLAYORDER=
